# xmcd CD database file
#
# Track frame offsets:
#	150
#	26973
#	48478
#	71101
#	96693
#	116110
#	137324
#	160810
#	180848
#	201947
#
# Disc length: 2960 seconds
#
# Revision: 1
# Processed by: cddbd v1.5.1PL2 Copyright (c) Steve Scherf et al.
# Submitted via: CDex 1.51
#
DISCID=900b8e0a
DTITLE=Bobby Rush - Hen Pecked
DYEAR=2005
DGENRE=Blues
TTITLE0=Hen Pecked
TTITLE1=Booga Bear
TTITLE2=I Like It
TTITLE3=Too Late, I'm Gone
TTITLE4=Dangerous
TTITLE5=Feel Like Gettin' It On
TTITLE6=Too Short, Too Little
TTITLE7=Butermilk Bottom
TTITLE8=Beat Me Rockin'
TTITLE9=Can't Save A Cent
EXTD=YEAR: 2005
EXTT0=
EXTT1=
EXTT2=
EXTT3=
EXTT4=
EXTT5=
EXTT6=
EXTT7=
EXTT8=
EXTT9=
PLAYORDER=
